<svg width="24" height="24" viewBox="0 0 24 24" fill="none" xmlns="http://www.w3.org/2000/svg">
<path fill-rule="evenodd" clip-rule="evenodd" d="M3 12C3 7.02944 7.02944 3 12 3C16.9706 3 21 7.02944 21 12C21 16.9706 16.9706 21 12 21C7.02944 21 3 16.9706 3 12ZM12 1C5.92487 1 1 5.92487 1 12C1 18.0751 5.92487 23 12 23C18.0751 23 23 18.0751 23 12C23 5.92487 18.0751 1 12 1ZM17.7071 10.2071C18.0976 9.81658 18.0976 9.18342 17.7071 8.79289C17.3166 8.40237 16.6834 8.40237 16.2929 8.79289L11 14.0858L8.70711 11.7929C8.31658 11.4024 7.68342 11.4024 7.29289 11.7929C6.90237 12.1834 6.90237 12.8166 7.29289 13.2071L10.2929 16.2071C10.6834 16.5976 11.3166 16.5976 11.7071 16.2071L17.7071 10.2071Z" fill="#2DD685"/>
</svg>
