<svg width="14" height="14" viewBox="0 0 14 14" fill="none" xmlns="http://www.w3.org/2000/svg">
<path fill-rule="evenodd" clip-rule="evenodd" d="M1.5 7.03773C1.5 4.02113 3.94544 1.57568 6.96205 1.57568C9.97865 1.57568 12.4241 4.02113 12.4241 7.03773C12.4241 10.0543 9.97865 12.4998 6.96205 12.4998C3.94544 12.4998 1.5 10.0543 1.5 7.03773ZM6.96205 0.0756836C3.11701 0.0756836 0 3.1927 0 7.03773C0 10.8828 3.11701 13.9998 6.96205 13.9998C10.8071 13.9998 13.9241 10.8828 13.9241 7.03773C13.9241 3.1927 10.8071 0.0756836 6.96205 0.0756836ZM7.71326 3.93186C7.71326 3.51764 7.37747 3.18186 6.96326 3.18186C6.54905 3.18186 6.21326 3.51764 6.21326 3.93186V7.03788C6.21326 7.23679 6.29228 7.42756 6.43293 7.56821L8.29654 9.43183C8.58944 9.72472 9.06431 9.72472 9.3572 9.43183C9.6501 9.13893 9.6501 8.66406 9.3572 8.37117L7.71326 6.72722V3.93186Z" fill="#222222"/>
</svg>
